<svg width="187" height="65" viewBox="0 0 187 65" fill="none" xmlns="http://www.w3.org/2000/svg">
<g opacity="0.54">
<path opacity="0.54" d="M242.962 39.4573C248.139 38.1321 245.772 35.5816 239.868 34.0563C233.964 32.53 225.693 31.8136 217.781 31.3172C209.869 30.82 201.699 30.4581 194.424 29.4084C179.368 27.2352 172.158 22.7864 166.763 18.7415C161.367 14.6966 155.342 10.2569 141.118 7.70876C129.965 5.71132 116.214 5.34601 103.714 4.10935C81.8935 1.95103 63.7744 -3.15513 58.054 -8.7613" stroke="url(#paint0_linear_9929_158083)" stroke-width="0.8669" stroke-miterlimit="10"/>
<path opacity="0.54" d="M241.931 39.9086C247.108 38.5861 244.805 36.0442 238.971 34.5085C238.451 34.371 237.907 34.2405 237.35 34.1149C231.665 32.842 224.209 32.189 217.037 31.7185C215.653 31.6275 214.259 31.5407 212.866 31.4539C206.325 31.0469 199.74 30.6342 193.766 29.7627C191.829 29.4806 190.02 29.16 188.331 28.8078C176.926 26.433 170.907 22.608 166.318 19.0843C165.986 18.8281 165.651 18.5708 165.311 18.3124C160.29 14.4874 154.321 10.4859 141.468 8.0198C137.792 7.31461 133.838 6.7612 129.581 6.32997C124.556 5.82038 119.221 5.48748 113.992 5.14693C110.422 4.9143 106.883 4.67588 103.42 4.36991C101.791 4.22606 100.178 4.0656 98.5843 3.88781C88.434 2.75699 79.1231 0.922926 71.8353 -1.28673C64.5301 -3.50178 59.2132 -6.08681 56.5728 -8.76922" stroke="url(#paint1_linear_9929_158083)" stroke-width="0.8669" stroke-miterlimit="10"/>
<path opacity="0.54" d="M240.999 40.3411C246.179 39.0205 243.941 36.4882 238.176 34.9422C237.66 34.8039 237.123 34.672 236.571 34.5457C230.943 33.2629 223.533 32.591 216.388 32.1008C215.008 32.0064 213.623 31.9164 212.234 31.8261C205.719 31.4031 199.152 30.9766 193.202 30.0989C191.273 29.8145 189.468 29.4932 187.783 29.1393C176.406 26.7541 170.442 22.9326 165.965 19.4088C165.64 19.153 165.312 18.8951 164.984 18.6373C160.1 14.8144 154.291 10.8535 141.902 8.31316C138.283 7.57059 134.408 6.95071 130.07 6.48543C124.943 5.93531 119.405 5.61355 114.045 5.30683C110.388 5.09735 106.771 4.89074 103.219 4.61244C101.547 4.48107 99.8942 4.33327 98.2497 4.16489C87.7844 3.09456 78.0656 1.21239 70.6023 -1.07059C63.1215 -3.35808 57.8151 -6.03388 55.1939 -8.79661" stroke="url(#paint2_linear_9929_158083)" stroke-width="0.8669" stroke-miterlimit="10"/>
<path opacity="0.54" d="M239.944 40.7773C245.124 39.4594 242.954 36.9359 237.254 35.3803C236.745 35.2415 236.217 35.1081 235.668 34.981C230.095 33.6872 222.734 32.9967 215.616 32.4877C214.244 32.3901 212.86 32.2955 211.48 32.202C204.99 31.7629 198.445 31.3229 192.515 30.4389C190.594 30.153 188.797 29.8303 187.115 29.4757C175.771 27.081 169.858 23.2629 165.492 19.7382C165.175 19.4818 164.858 19.2245 164.537 18.967C159.79 15.1453 154.139 11.2222 142.219 8.6106C138.654 7.82955 134.861 7.1452 130.439 6.64568C125.21 6.05412 119.469 5.7444 113.979 5.47242C110.231 5.28592 106.539 5.1122 102.899 4.86067C101.187 4.74286 99.4867 4.60646 97.7953 4.44767C87.015 3.43781 76.8882 1.50846 69.2494 -0.84786C61.5931 -3.20868 56.297 -5.97435 53.6913 -8.81758" stroke="url(#paint3_linear_9929_158083)" stroke-width="0.8669" stroke-miterlimit="10"/>
<path opacity="0.54" d="M239.007 41.2164C244.186 39.9003 242.08 37.3863 236.453 35.8205C235.949 35.6801 235.427 35.5471 234.887 35.4186C229.372 34.1139 222.056 33.4054 214.964 32.8777C213.597 32.7757 212.221 32.6788 210.842 32.5817C204.378 32.1265 197.852 31.6718 191.941 30.7824C190.028 30.4942 188.235 30.1707 186.561 29.8147C175.245 27.4104 169.391 23.5952 165.129 20.07C164.819 19.814 164.51 19.5561 164.2 19.2983C159.59 15.4787 154.102 11.5872 142.647 8.91055C139.139 8.09031 135.422 7.34112 130.918 6.80846C125.584 6.17527 119.643 5.87778 114.023 5.63962C110.187 5.47718 106.418 5.33437 102.686 5.11032C100.934 5.00518 99.1859 4.88017 97.4438 4.73171C86.3483 3.78323 75.8138 1.80487 67.9994 -0.623876C60.1674 -3.05712 54.8818 -5.91358 52.2916 -8.83729" stroke="url(#paint4_linear_9929_158083)" stroke-width="0.8669" stroke-miterlimit="10"/>
<path opacity="0.54" d="M237.968 41.6512C243.15 40.3381 241.109 37.8318 235.552 36.2566C235.055 36.1156 234.537 35.9809 234.001 35.8517C228.544 34.5361 221.273 33.8098 214.209 33.2624C212.846 33.157 211.475 33.0567 210.103 32.9563C203.666 32.485 197.158 32.0166 191.271 31.1211C189.365 30.8314 187.58 30.5065 185.907 30.1486C174.619 27.7339 168.819 23.9231 164.669 20.397C164.367 20.1404 164.068 19.884 163.766 19.6256C159.292 15.808 153.973 11.9439 142.978 9.20558C139.52 8.34488 135.888 7.5332 131.303 6.96558C125.868 6.29186 119.724 6.0055 113.969 5.801C110.043 5.66154 106.196 5.55054 102.379 5.35434C100.583 5.26167 98.7953 5.14933 97.0028 5.01028C85.5922 4.12228 74.6497 2.09673 66.6598 -0.405353C58.656 -2.91175 53.3771 -5.85826 50.8023 -8.86247" stroke="url(#paint5_linear_9929_158083)" stroke-width="0.8669" stroke-miterlimit="10"/>
<path opacity="0.54" d="M236.935 42.0961C242.117 40.7848 240.144 38.2882 234.652 36.7025C234.163 36.561 233.65 36.4247 233.12 36.2949C227.718 34.9692 220.497 34.2234 213.462 33.6582C212.104 33.5494 210.741 33.4449 209.374 33.3411C202.963 32.8547 196.476 32.3718 190.61 31.4699C188.712 31.1779 186.931 30.8514 185.265 30.493C174.006 28.0686 168.261 24.2606 164.222 20.7343C163.927 20.4781 163.636 20.2211 163.345 19.9633C159.008 16.1478 153.858 12.3065 143.321 9.51192C139.918 8.61004 136.368 7.73569 131.698 7.13474C126.162 6.41958 119.815 6.14527 113.929 5.9755C109.916 5.85919 105.99 5.78 102.085 5.61147C100.249 5.53236 98.4137 5.43142 96.5706 5.30178C84.8451 4.47426 73.4948 2.40061 65.3291 -0.173896C57.1497 -2.75273 51.8813 -5.79001 49.322 -8.87472" stroke="url(#paint6_linear_9929_158083)" stroke-width="0.8669" stroke-miterlimit="10"/>
<path opacity="0.54" d="M236.006 42.5409C241.191 41.2324 239.28 38.7442 233.86 37.1493C233.374 37.007 232.869 36.8702 232.344 36.7388C227 35.4022 219.823 34.6385 212.816 34.0537C211.466 33.9416 210.104 33.8335 208.745 33.7265C202.356 33.2237 195.892 32.7264 190.048 31.8193C188.159 31.5258 186.382 31.1977 184.724 30.8378C173.493 28.4039 167.803 24.5994 163.876 21.0722C163.592 20.8156 163.308 20.559 163.024 20.3015C158.824 16.4881 153.854 12.6656 143.765 9.81787C140.417 8.87301 136.947 7.93869 132.193 7.30261C126.555 6.54601 120.005 6.28374 113.989 6.1478C109.885 6.05447 105.884 6.00727 101.888 5.86623C100.008 5.7996 98.1326 5.71132 96.2391 5.5911C84.1983 4.82496 72.4401 2.70321 64.099 0.0553705C55.744 -2.59679 50.486 -5.72395 47.9459 -8.88897" stroke="url(#paint7_linear_9929_158083)" stroke-width="0.8669" stroke-miterlimit="10"/>
<path opacity="0.54" d="M234.937 42.9671C240.121 41.6614 238.278 39.182 232.924 37.5765C232.447 37.4328 231.945 37.2953 231.427 37.1634C226.138 35.8157 219.014 35.0336 212.03 34.4298C210.684 34.3134 209.331 34.202 207.976 34.0915C201.614 33.5727 195.167 33.0617 189.348 32.1484C187.462 31.8533 185.697 31.5239 184.039 31.1631C172.84 28.7189 167.201 24.9178 163.385 21.3905C163.109 21.1343 162.832 20.8771 162.56 20.6193C158.5 16.8081 153.712 13.0018 144.065 10.1043C140.772 9.11554 137.38 8.12108 132.549 7.45202C126.809 6.65489 120.056 6.40376 113.909 6.30165C109.718 6.23148 105.639 6.21699 101.554 6.10362C99.634 6.04965 97.7113 5.97366 95.7709 5.86304C83.4151 5.15738 71.2528 2.98772 62.7323 0.267267C54.2017 -2.45732 48.9544 -5.67616 46.4296 -8.92078" stroke="url(#paint8_linear_9929_158083)" stroke-width="0.8669" stroke-miterlimit="10"/>
<path opacity="0.54" d="M234.019 43.4129C239.206 42.1091 237.424 39.6391 232.143 38.0234C231.67 37.879 231.176 37.74 230.666 37.6075C225.434 36.2499 218.356 35.449 211.398 34.8264C210.057 34.7066 208.708 34.5918 207.358 34.4779C201.022 33.943 194.597 33.4184 188.798 32.4988C186.92 32.2014 185.159 31.8712 183.508 31.509C172.338 29.0552 166.754 25.2577 163.046 21.7292C162.777 21.4733 162.512 21.2158 162.246 20.9583C158.324 17.1492 153.729 13.355 144.516 10.412C141.282 9.37862 137.967 8.32492 133.051 7.62163C127.21 6.78305 120.254 6.54306 113.972 6.47551C109.69 6.42922 105.537 6.44582 101.361 6.35993C99.4 6.31952 97.4301 6.25494 95.4392 6.15374C82.7682 5.50945 70.198 3.29169 61.5021 0.497911C52.7958 -2.29911 47.5553 -5.6089 45.0497 -8.93383" stroke="url(#paint9_linear_9929_158083)" stroke-width="0.8669" stroke-miterlimit="10"/>
<path opacity="0.54" d="M232.969 43.8522C238.155 42.5512 236.442 40.0891 231.23 38.4649C230.763 38.3199 230.277 38.1804 229.767 38.0461C224.591 36.6775 217.561 35.8579 210.63 35.2165C209.298 35.0934 207.953 34.9752 206.608 34.8579C200.297 34.3078 193.891 33.7677 188.115 32.8428C186.246 32.544 184.491 32.2123 182.845 31.8485C171.703 29.3851 166.174 25.5912 162.577 22.0618C162.316 21.8053 162.058 21.5482 161.804 21.2912C158.018 17.4842 153.626 13.6989 144.838 10.7126C141.663 9.63373 138.425 8.52259 133.425 7.78507C127.482 6.90506 120.322 6.67711 113.911 6.64429C109.537 6.62097 105.31 6.66956 101.045 6.61135C99.0408 6.58342 97.0307 6.53149 94.9894 6.4397C82.0034 5.8559 69.0253 3.59004 60.1539 0.722925C51.2721 -2.14743 46.042 -5.5471 43.5518 -8.95252" stroke="url(#paint10_linear_9929_158083)" stroke-width="0.8669" stroke-miterlimit="10"/>
<path opacity="0.54" d="M232.041 44.2914C237.231 42.9923 235.582 40.5397 230.435 38.9051C229.977 38.7586 229.494 38.6184 228.992 38.4835C223.874 37.104 216.889 36.2666 209.989 35.6066C208.661 35.4801 207.321 35.3575 205.984 35.2369C199.699 34.6708 193.311 34.117 187.555 33.1858C185.694 32.8845 183.944 32.5522 182.301 32.1867C171.188 29.7129 165.717 25.9227 162.228 22.393C161.974 22.1369 161.727 21.8794 161.481 21.6219C157.832 17.8169 153.653 14.0392 145.28 11.0119C142.168 9.8868 139.003 8.71805 133.921 7.94647C127.877 7.02592 120.514 6.80912 113.972 6.81013C109.511 6.80997 105.206 6.89037 100.853 6.85982C98.8083 6.84545 96.751 6.80492 94.6592 6.72255C81.3581 6.19923 67.9722 3.88527 58.9251 0.945728C49.8677 -1.99705 44.648 -5.4875 42.1734 -8.97342" stroke="url(#paint11_linear_9929_158083)" stroke-width="0.8669" stroke-miterlimit="10"/>
<path opacity="0.54" d="M230.99 44.7316C236.179 43.4353 234.595 40.9913 229.521 39.3464C229.067 39.1993 228.592 39.0576 228.094 38.9211C223.034 37.5308 216.095 36.6745 209.221 35.9958C207.898 35.8649 206.566 35.74 205.233 35.616C198.975 35.0337 192.609 34.4664 186.873 33.5288C185.019 33.2261 183.273 32.8913 181.639 32.5253C170.553 30.0418 165.137 26.2552 161.76 22.7246C161.513 22.4679 161.274 22.2108 161.038 21.9538C157.526 18.15 153.573 14.3778 145.602 11.3116C142.553 10.1393 139.457 8.91457 134.295 8.10894C128.149 7.14695 120.583 6.94219 113.907 6.97685C109.355 6.99967 104.972 7.11278 100.531 7.10899C98.442 7.10711 96.3409 7.07906 94.2022 7.00628C80.586 6.54434 66.7922 4.18228 57.5697 1.16941C48.3368 -1.84671 43.1274 -5.42703 40.6719 -8.99326" stroke="url(#paint12_linear_9929_158083)" stroke-width="0.8669" stroke-miterlimit="10"/>
<path opacity="0.54" d="M230.066 45.178C235.258 43.8836 233.739 41.4492 228.731 39.7939C228.283 39.6462 227.813 39.5037 227.322 39.3658C222.317 37.9653 215.426 37.0904 208.579 36.3929C207.261 36.2586 205.937 36.1295 204.609 36.003C198.376 35.4047 192.029 34.8227 186.316 33.8799C184.47 33.5758 182.732 33.2394 181.102 32.8718C170.048 30.379 164.683 26.5948 161.418 23.0641C161.182 22.808 160.95 22.5503 160.722 22.2937C157.347 18.492 153.626 14.7237 146.047 11.6199C143.069 10.4 140.038 9.11909 134.791 8.27923C128.544 7.2758 120.775 7.08308 113.967 7.15247C109.329 7.19935 104.867 7.34337 100.338 7.36725C98.209 7.37802 96.0644 7.36155 93.875 7.2991C79.9438 6.89763 65.7421 4.48748 56.3439 1.40217C46.9353 -1.68637 41.7365 -5.35747 39.2965 -9.0042" stroke="url(#paint13_linear_9929_158083)" stroke-width="0.8669" stroke-miterlimit="10"/>
<path opacity="0.54" d="M229.006 45.6085C234.197 44.3169 232.746 41.8912 227.807 40.2264C227.367 40.0782 226.901 39.9341 226.418 39.7957C221.471 38.3843 214.626 37.4906 207.805 36.7743C206.495 36.6368 205.172 36.5041 203.849 36.3732C197.638 35.7595 191.313 35.1631 185.624 34.2142C183.786 33.9077 182.052 33.5706 180.425 33.2023C169.4 30.6998 164.09 26.9193 160.932 23.3874C160.704 23.1308 160.48 22.8734 160.263 22.6173C157.024 18.8177 153.544 15.0511 146.352 11.9113C143.445 10.6428 140.479 9.30753 135.151 8.43361C128.802 7.38964 120.834 7.20824 113.892 7.31129C109.163 7.38114 104.627 7.55715 100.006 7.60853C97.8364 7.63286 95.6445 7.62779 93.4046 7.57475C79.1583 7.23376 64.5487 4.77641 54.975 1.61778C45.3909 -1.5441 40.2024 -5.30508 37.7779 -9.0323" stroke="url(#paint14_linear_9929_158083)" stroke-width="0.8669" stroke-miterlimit="10"/>
<path opacity="0.54" d="M228.108 46.0591C233.303 44.7694 231.912 42.3531 227.046 40.6782C226.611 40.5283 226.152 40.3837 225.673 40.2445C220.78 38.8221 213.984 37.9107 207.194 37.1749C205.888 37.0339 204.574 36.898 203.255 36.7637C197.071 36.1339 190.767 35.5239 185.098 34.5687C183.268 34.2607 181.541 33.9222 179.919 33.5523C168.922 31.0393 163.667 27.2624 160.621 23.7304C160.4 23.4741 160.186 23.2173 159.977 22.9597C156.875 19.1622 153.651 15.3962 146.831 12.2224C144.002 10.9056 141.094 9.51476 135.681 8.60662C129.231 7.52121 121.059 7.35185 113.987 7.48873C109.171 7.58174 104.557 7.78957 99.8473 7.86861C97.6343 7.90542 95.4022 7.913 93.1119 7.86938C78.5504 7.58977 63.5331 5.08343 53.7837 1.85237C44.0239 -1.38194 38.846 -5.23369 36.437 -9.0414" stroke="url(#paint15_linear_9929_158083)" stroke-width="0.8669" stroke-miterlimit="10"/>
<path opacity="0.54" d="M227.16 46.4934C232.354 45.2064 231.032 42.798 226.232 41.1135C225.804 40.9631 225.352 40.8179 224.877 40.6771C220.043 39.2438 213.292 38.3145 206.529 37.5599C205.228 37.4146 203.918 37.2752 202.607 37.1377C196.449 36.4919 190.163 35.8672 184.518 34.9067C182.696 34.5964 180.973 34.2572 179.359 33.8858C168.39 31.3633 163.19 27.5899 160.255 24.057C160.042 23.8001 159.836 23.5437 159.637 23.2866C156.672 19.4912 153.708 15.7259 147.256 12.517C144.509 11.1513 141.651 9.70626 136.158 8.76406C129.606 7.63721 121.231 7.4799 114.025 7.65043C109.117 7.76641 104.429 8.00713 99.6311 8.11293C97.3777 8.1633 95.0984 8.18229 92.7613 8.14826C77.8848 7.92913 62.4594 5.37559 52.5345 2.07119C42.5993 -1.23645 37.4317 -5.17807 35.0381 -9.06628" stroke="url(#paint16_linear_9929_158083)" stroke-width="0.8669" stroke-miterlimit="10"/>
<path opacity="0.54" d="M226.098 46.9245C231.292 45.6393 230.039 43.2406 225.307 41.5466C224.883 41.3955 224.439 41.2489 223.968 41.1073C219.192 39.6641 212.486 38.7151 205.75 37.9417C204.453 37.793 203.151 37.6503 201.845 37.5094C195.713 36.8475 189.446 36.2091 183.825 35.2424C182.01 34.9307 180.292 34.5899 178.681 34.2168C167.741 31.6847 162.595 27.9149 159.772 24.381C159.566 24.1245 159.371 23.8677 159.18 23.611C156.352 19.8177 153.662 16.0529 147.563 12.8101C144.903 11.3947 142.095 9.89544 136.52 8.92008C129.867 7.7527 121.289 7.60652 113.952 7.81179C108.957 7.95093 104.19 8.22346 99.3009 8.35675C97.0037 8.4196 94.6806 8.45107 92.293 8.42646C77.1013 8.26871 61.2682 5.66617 51.1677 2.28934C41.0568 -1.09073 35.8997 -5.12313 33.5253 -9.09166" stroke="url(#paint17_linear_9929_158083)" stroke-width="0.8669" stroke-miterlimit="10"/>
<path opacity="0.54" d="M225.168 47.3675C230.365 46.0852 229.173 43.6949 224.51 41.9906C224.094 41.838 223.654 41.6907 223.191 41.5486C218.469 40.0943 211.812 39.1276 205.103 38.3355C203.814 38.1835 202.513 38.0363 201.215 37.893C195.109 37.215 188.864 36.5631 183.259 35.5899C181.452 35.2768 179.742 34.9336 178.135 34.5598C167.227 32.0174 162.132 28.2509 159.42 24.717C159.222 24.46 159.035 24.2035 158.855 23.9474C156.163 20.1561 153.752 16.3902 148.002 13.1141C145.431 11.6492 142.67 10.0966 137.011 9.08607C130.256 7.87725 121.475 7.74222 114.007 7.98222C108.921 8.14523 104.077 8.44867 99.1025 8.61071C96.7652 8.68622 94.3983 8.73017 91.9602 8.71498C76.4497 8.61753 60.2123 5.96797 49.9365 2.51691C39.6499 -0.935589 34.5033 -5.05877 32.1445 -9.10779" stroke="url(#paint18_linear_9929_158083)" stroke-width="0.8669" stroke-miterlimit="10"/>
<path opacity="0.54" d="M223.988 47.8016C229.184 46.5211 228.06 44.1405 223.467 42.4259C223.058 42.2728 222.622 42.1248 222.167 41.9812C217.503 40.5161 210.891 39.5306 204.209 38.7196C202.925 38.5642 201.632 38.4138 200.335 38.2659C194.255 37.5728 188.028 36.9053 182.447 35.926C180.648 35.6105 178.941 35.2666 177.342 34.8923C166.462 32.3403 161.426 28.5776 158.819 25.0423C158.631 24.7858 158.448 24.5286 158.275 24.2719C155.721 20.4827 153.599 16.7172 148.187 13.4073C145.714 11.8933 142.991 10.2859 137.247 9.2421C130.391 7.99185 121.407 7.86885 113.808 8.14268C108.632 8.32867 103.713 8.6641 98.6503 8.85381C96.269 8.9427 93.8585 8.99823 91.3699 8.99245C75.5444 8.95548 58.8992 6.25783 48.4477 2.73434C37.9856 -0.791494 32.8457 -5.00472 30.506 -9.13406" stroke="url(#paint19_linear_9929_158083)" stroke-width="0.8669" stroke-miterlimit="10"/>
<path opacity="0.54" d="M223.036 48.2426C228.235 46.965 227.176 44.5931 222.652 42.8681C222.247 42.7143 221.819 42.5648 221.367 42.4205C216.758 40.9452 210.195 39.9411 203.543 39.1106C202.264 38.9508 200.976 38.7979 199.687 38.6468C193.633 37.9376 187.424 37.2564 181.867 36.271C180.076 35.954 178.377 35.6086 176.782 35.2327C165.93 32.6711 160.949 28.9111 158.453 25.3757C158.273 25.1187 158.101 24.862 157.935 24.6057C155.521 20.8187 153.692 17.0538 148.612 13.7098C146.235 12.1466 143.548 10.4852 137.727 9.40662C130.769 8.11582 121.582 8.00397 113.849 8.31235C108.585 8.5215 103.588 8.88874 98.4337 9.10594C96.0123 9.20749 93.5543 9.27532 91.0189 9.27914C74.8783 9.30354 57.8251 6.55779 47.1982 2.96097C36.5604 -0.637291 31.4313 -4.9422 29.1068 -9.15113" stroke="url(#paint20_linear_9929_158083)" stroke-width="0.8669" stroke-miterlimit="10"/>
<path opacity="0.54" d="M222.004 48.6877C227.203 47.4119 226.209 45.0485 221.754 43.3151C221.356 43.1607 220.932 43.0095 220.488 42.8647C215.937 41.3786 209.42 40.3556 202.794 39.5073C201.52 39.3441 200.24 39.187 198.955 39.0325C192.924 38.307 186.74 37.6125 181.203 36.6207C179.42 36.3013 177.725 35.9552 176.134 35.5777C165.311 33.0056 160.385 29.2501 158 25.7137C157.827 25.4571 157.662 25.1998 157.508 24.9441C155.231 21.1583 153.706 17.3944 148.95 14.0159C146.677 12.403 144.022 10.6875 138.116 9.57554C131.056 8.2433 121.666 8.14349 113.802 8.48571C108.448 8.71783 103.376 9.11796 98.1339 9.36193C95.6723 9.47613 93.1706 9.55644 90.5846 9.56968C74.129 9.65456 56.6717 6.86089 45.8654 3.19146C35.0522 -0.480129 29.9333 -4.87491 27.6243 -9.16434" stroke="url(#paint21_linear_9929_158083)" stroke-width="0.8669" stroke-miterlimit="10"/>
<path opacity="0.54" d="M221.075 49.129C226.277 47.8561 225.347 45.5014 220.961 43.7576C220.568 43.6016 220.151 43.4508 219.715 43.3046C215.222 41.8075 208.75 40.7667 202.151 39.8987C200.884 39.7322 199.605 39.5715 198.329 39.4137C192.324 38.6722 186.159 37.9639 180.645 36.966C178.87 36.6452 177.179 36.2975 175.596 35.9185C164.801 33.3368 159.93 29.5839 157.656 26.0475C157.491 25.7903 157.337 25.5336 157.19 25.2782C155.05 21.4945 153.84 17.7322 149.396 14.3187C147.232 12.6571 144.604 10.8873 138.614 9.74024C131.449 8.36639 121.859 8.27879 113.865 8.65484C108.423 8.91103 103.274 9.34206 97.9396 9.61352C95.434 9.74111 92.8887 9.833 90.2522 9.85565C73.4816 10.001 55.6162 7.16014 44.6344 3.41738C33.6455 -0.32664 28.5372 -4.8122 26.2474 -9.18194" stroke="url(#paint22_linear_9929_158083)" stroke-width="0.8669" stroke-miterlimit="10"/>
<path opacity="0.54" d="M220.146 49.5719C225.348 48.3008 224.486 45.9558 220.166 44.2015C219.78 44.0449 219.371 43.8927 218.935 43.7456C214.497 42.2375 208.073 41.178 201.501 40.2921C200.239 40.1222 198.969 39.9574 197.697 39.7971C191.718 39.0403 185.571 38.3166 180.081 37.3134C178.313 36.9902 176.63 36.642 175.051 36.2613C164.288 33.6703 159.468 29.9208 157.306 26.3834C157.148 26.1266 157.002 25.8693 156.866 25.6135C154.863 21.8319 153.968 18.0721 149.837 14.6217C147.788 12.911 145.181 11.0865 139.109 9.9063C131.843 8.49191 122.05 8.41546 113.922 8.82516C108.389 9.10432 103.165 9.56735 97.7428 9.86648C95.1971 10.0067 92.6082 10.1102 89.9211 10.1432C72.8352 10.3499 54.5622 7.46004 43.4047 3.64485C32.244 -0.17232 27.1423 -4.74793 24.868 -9.19817" stroke="url(#paint23_linear_9929_158083)" stroke-width="0.8669" stroke-miterlimit="10"/>
<path opacity="0.54" d="M219.095 50.0026C224.3 48.7344 223.499 46.3978 219.252 44.6343C218.874 44.4772 218.469 44.3233 218.04 44.1756C213.66 42.6576 207.282 41.5793 200.741 40.6739C199.483 40.5006 198.217 40.3323 196.95 40.1677C190.997 39.3948 184.872 38.6575 179.402 37.648C177.642 37.3234 175.963 36.9735 174.388 36.5912C163.653 33.9897 158.888 30.2447 156.838 26.7064C156.688 26.4489 156.552 26.1922 156.424 25.9368C154.557 22.1572 153.988 18.4005 150.155 14.9135C148.222 13.1545 145.632 11.2742 139.479 10.06C132.112 8.60413 122.115 8.53972 113.856 8.98415C108.237 9.28647 102.934 9.78131 97.4237 10.1081C94.834 10.2617 92.2015 10.3768 89.4639 10.4192C72.063 10.6864 53.3819 7.74932 42.049 3.86079C30.7126 -0.0288118 25.6214 -4.6952 23.3626 -9.22593" stroke="url(#paint24_linear_9929_158083)" stroke-width="0.8669" stroke-miterlimit="10"/>
<path opacity="0.54" d="M218.138 50.4381C223.342 49.1717 222.61 46.8448 218.428 45.0707C218.054 44.912 217.656 44.7585 217.232 44.6082C212.906 43.0792 206.577 41.9823 200.063 41.0581C198.814 40.8806 197.552 40.7098 196.289 40.5417C190.362 39.7528 184.255 39.0018 178.805 37.9859C177.053 37.6599 175.382 37.3076 173.811 36.9256C163.105 34.3144 158.394 30.5721 156.452 27.0335C156.309 26.7765 156.181 26.5201 156.064 26.2643C154.334 22.4868 154.094 18.7342 150.56 15.2087C148.75 13.401 146.172 11.4665 139.935 10.218C132.466 8.72074 122.266 8.66837 113.877 9.14664C108.166 9.47193 102.786 9.99948 97.1871 10.353C94.5573 10.5193 91.8773 10.6467 89.0929 10.6987C71.3768 11.0273 52.288 8.0412 40.776 4.07916C29.2639 0.117128 24.1832 -4.64004 21.94 -9.25127" stroke="url(#paint25_linear_9929_158083)" stroke-width="0.8669" stroke-miterlimit="10"/>
<path opacity="0.54" d="M217.082 50.8794C222.289 49.6158 221.618 47.2965 217.509 45.5132C217.142 45.3539 216.749 45.1988 216.332 45.048C212.064 43.508 205.781 42.3933 199.293 41.4503C198.048 41.2694 196.791 41.0943 195.537 40.9238C189.636 40.1189 183.547 39.3532 178.12 38.3321C176.377 38.0037 174.709 37.6507 173.146 37.2672C162.468 34.6465 157.812 30.9077 155.981 27.3681C155.85 27.1107 155.729 26.8547 155.619 26.5984C154.026 22.823 154.119 19.0755 150.88 15.5114C149.193 13.6558 146.628 11.6654 140.311 10.3828C132.74 8.84503 122.337 8.8038 113.817 9.3159C108.019 9.66435 102.561 10.2237 96.8738 10.6049C94.2038 10.7839 91.4801 10.9237 88.6452 10.9851C70.614 11.3742 51.1175 8.34004 39.4297 4.30557C27.7422 0.270208 22.6718 -4.57684 20.4441 -9.26855" stroke="url(#paint26_linear_9929_158083)" stroke-width="0.8669" stroke-miterlimit="10"/>
<path opacity="0.54" d="M216.162 51.3285C221.369 50.0667 220.766 47.7571 216.726 45.9634C216.363 45.8034 215.978 45.6469 215.568 45.4956C211.355 43.9455 205.121 42.8121 198.66 41.8494C197.42 41.6651 196.171 41.4867 194.921 41.3119C189.046 40.4909 182.979 39.7116 177.573 38.6842C175.837 38.3544 174.173 37.9998 172.614 37.6146C161.964 34.9843 157.367 31.2484 155.644 27.7086C155.52 27.4515 155.407 27.195 155.308 26.9392C153.852 23.1658 154.284 19.4248 151.333 15.8199C149.776 13.9168 147.214 11.8708 140.815 10.5542C133.143 8.97493 122.537 8.94484 113.883 9.4924C107.994 9.86473 102.461 10.4552 96.6822 10.8639C93.9682 11.0562 91.2008 11.2076 88.3155 11.2784C69.9693 11.728 50.0647 8.64665 38.2015 4.53885C26.3382 0.431052 21.2784 -4.50677 19.0661 -9.27898" stroke="url(#paint27_linear_9929_158083)" stroke-width="0.8669" stroke-miterlimit="10"/>
<path opacity="0.54" d="M215.092 51.7615C220.302 50.5027 219.764 48.2016 215.789 46.3984C215.434 46.2378 215.052 46.0805 214.647 45.9276C210.493 44.3666 204.303 43.2145 197.869 42.2339C196.633 42.0461 195.389 41.8634 194.147 41.6863C188.295 40.8499 182.25 40.0562 176.867 39.0226C175.139 38.6904 173.483 38.3353 171.928 37.9485C161.31 35.3079 156.764 31.5763 155.153 28.0355C155.036 27.7779 154.934 27.5219 154.842 27.2664C153.523 23.4952 154.299 19.7617 151.632 16.1159C150.205 14.1651 147.649 12.0628 141.166 10.712C133.392 9.09132 122.583 9.07328 113.798 9.65466C107.818 10.05 102.211 10.6724 96.3439 11.1088C93.5898 11.3138 90.775 11.4775 87.8428 11.5579C69.1814 12.0688 48.8691 8.93849 36.8302 4.75826C24.7916 0.577136 19.742 -4.45056 17.5489 -9.30309" stroke="url(#paint28_linear_9929_158083)" stroke-width="0.8669" stroke-miterlimit="10"/>
<path opacity="0.54" d="M214.145 52.2043C219.354 50.9472 218.881 48.6557 214.979 46.8423C214.632 46.6803 214.254 46.5223 213.856 46.3688C209.76 44.797 203.615 43.6269 197.212 42.6268C195.984 42.4349 194.745 42.2497 193.504 42.068C187.677 41.2155 181.651 40.4072 176.292 39.3684C174.571 39.0348 172.92 38.678 171.372 38.2898C160.783 35.6396 156.292 31.9106 154.791 28.3698C154.682 28.1125 154.587 27.856 154.507 27.601C153.325 23.8319 154.447 20.107 152.062 16.4182C150.772 14.4212 148.214 12.2622 141.65 10.8773C133.775 9.21612 122.763 9.20922 113.847 9.82443C107.78 10.2429 102.095 10.8971 96.1394 11.3621C93.3415 11.5796 90.4866 11.7559 87.5039 11.8458C68.5275 12.4172 47.8071 9.23963 35.5928 4.98607C23.3784 0.732507 18.3394 -4.38597 16.1618 -9.31899" stroke="url(#paint29_linear_9929_158083)" stroke-width="0.8669" stroke-miterlimit="10"/>
<path opacity="0.54" d="M213.099 52.6319C218.307 51.3775 217.902 49.0948 214.066 47.2709C213.723 47.1082 213.356 46.9489 212.959 46.7945C208.917 45.2116 202.821 44.0229 196.444 43.005C195.222 42.8096 193.986 42.621 192.754 42.4361C186.953 41.5675 180.949 40.7456 175.609 39.7005C173.893 39.3652 172.253 39.0072 170.706 38.618C160.145 35.9583 155.708 32.2329 154.316 28.6909C154.214 28.4331 154.13 28.1771 154.058 27.9216C153.012 24.1536 154.481 20.4392 152.377 16.7074C151.224 14.6641 148.666 12.4476 142.017 11.0285C134.04 9.32582 122.825 9.33096 113.779 9.98C107.621 10.4214 101.861 11.1086 95.8136 11.6001C92.9753 11.8312 90.0732 12.0189 87.04 12.1182C67.7486 12.7501 46.6204 9.52442 34.2304 5.19843C21.8405 0.871545 16.8082 -4.33698 14.6497 -9.35032" stroke="white" stroke-width="0.8669" stroke-miterlimit="10"/>
<path opacity="0.54" d="M212.148 53.0824C217.824 51.7184 216.914 49.1428 212.164 47.2435C207.414 45.3451 199.736 43.9946 192.107 42.8265C184.478 41.6583 176.48 40.5735 170.143 38.9678C158.847 36.1044 154.624 32.0297 153.719 28.2649C152.81 24.4989 154.633 20.7953 152.802 17.0193C151.791 14.9299 149.223 12.6564 142.494 11.2032C134.415 9.45911 122.997 9.4763 113.816 10.1599C104.636 10.8435 96.3379 12.0738 86.6898 12.4152C67.0832 13.1085 45.5471 9.83477 32.9816 5.43545C20.4161 1.03613 15.3943 -4.26317 13.2513 -9.357" stroke="white" stroke-width="0.8669" stroke-miterlimit="10"/>
</g>
<defs>
<linearGradient id="paint0_linear_9929_158083" x1="63.4038" y1="-9.9372" x2="81.4451" y2="74.162" gradientUnits="userSpaceOnUse">
<stop stop-color="#7ED4EF"/>
<stop offset="0.2294" stop-color="#66BFE6"/>
<stop offset="0.711" stop-color="#298BD0"/>
<stop offset="1" stop-color="#0169C2"/>
</linearGradient>
<linearGradient id="paint1_linear_9929_158083" x1="61.4149" y1="-9.8359" x2="79.5703" y2="74.7948" gradientUnits="userSpaceOnUse">
<stop stop-color="#7ED4EF"/>
<stop offset="0.2294" stop-color="#66BFE6"/>
<stop offset="0.711" stop-color="#298BD0"/>
<stop offset="1" stop-color="#0169C2"/>
</linearGradient>
<linearGradient id="paint2_linear_9929_158083" x1="59.5248" y1="-9.75343" x2="77.7943" y2="75.4089" gradientUnits="userSpaceOnUse">
<stop stop-color="#7ED4EF"/>
<stop offset="0.2294" stop-color="#66BFE6"/>
<stop offset="0.711" stop-color="#298BD0"/>
<stop offset="1" stop-color="#0169C2"/>
</linearGradient>
<linearGradient id="paint3_linear_9929_158083" x1="57.668" y1="-9.70169" x2="76.0514" y2="75.9921" gradientUnits="userSpaceOnUse">
<stop stop-color="#7ED4EF"/>
<stop offset="0.2294" stop-color="#66BFE6"/>
<stop offset="0.711" stop-color="#298BD0"/>
<stop offset="1" stop-color="#0169C2"/>
</linearGradient>
<linearGradient id="paint4_linear_9929_158083" x1="56.2057" y1="-9.70644" x2="74.7032" y2="76.5189" gradientUnits="userSpaceOnUse">
<stop stop-color="#7ED4EF"/>
<stop offset="0.2294" stop-color="#66BFE6"/>
<stop offset="0.711" stop-color="#298BD0"/>
<stop offset="1" stop-color="#0169C2"/>
</linearGradient>
<linearGradient id="paint5_linear_9929_158083" x1="54.6585" y1="-9.71793" x2="73.27" y2="77.0389" gradientUnits="userSpaceOnUse">
<stop stop-color="#7ED4EF"/>
<stop offset="0.2294" stop-color="#66BFE6"/>
<stop offset="0.711" stop-color="#298BD0"/>
<stop offset="1" stop-color="#0169C2"/>
</linearGradient>
<linearGradient id="paint6_linear_9929_158083" x1="53.1346" y1="-9.72309" x2="71.8601" y2="77.5652" gradientUnits="userSpaceOnUse">
<stop stop-color="#7ED4EF"/>
<stop offset="0.2294" stop-color="#66BFE6"/>
<stop offset="0.711" stop-color="#298BD0"/>
<stop offset="1" stop-color="#0169C2"/>
</linearGradient>
<linearGradient id="paint7_linear_9929_158083" x1="51.7295" y1="-9.73261" x2="70.569" y2="78.0871" gradientUnits="userSpaceOnUse">
<stop stop-color="#7ED4EF"/>
<stop offset="0.2294" stop-color="#66BFE6"/>
<stop offset="0.711" stop-color="#298BD0"/>
<stop offset="1" stop-color="#0169C2"/>
</linearGradient>
<linearGradient id="paint8_linear_9929_158083" x1="50.2285" y1="-9.76994" x2="69.182" y2="78.5812" gradientUnits="userSpaceOnUse">
<stop stop-color="#7ED4EF"/>
<stop offset="0.2294" stop-color="#66BFE6"/>
<stop offset="0.711" stop-color="#298BD0"/>
<stop offset="1" stop-color="#0169C2"/>
</linearGradient>
<linearGradient id="paint9_linear_9929_158083" x1="48.9111" y1="-9.79391" x2="67.9786" y2="79.0886" gradientUnits="userSpaceOnUse">
<stop stop-color="#7ED4EF"/>
<stop offset="0.2294" stop-color="#66BFE6"/>
<stop offset="0.711" stop-color="#298BD0"/>
<stop offset="1" stop-color="#0169C2"/>
</linearGradient>
<linearGradient id="paint10_linear_9929_158083" x1="47.4812" y1="-9.82852" x2="66.6627" y2="79.5854" gradientUnits="userSpaceOnUse">
<stop stop-color="#7ED4EF"/>
<stop offset="0.2294" stop-color="#66BFE6"/>
<stop offset="0.711" stop-color="#298BD0"/>
<stop offset="1" stop-color="#0169C2"/>
</linearGradient>
<linearGradient id="paint11_linear_9929_158083" x1="46.184" y1="-9.86647" x2="65.4795" y2="80.0789" gradientUnits="userSpaceOnUse">
<stop stop-color="#7ED4EF"/>
<stop offset="0.2294" stop-color="#66BFE6"/>
<stop offset="0.711" stop-color="#298BD0"/>
<stop offset="1" stop-color="#0169C2"/>
</linearGradient>
<linearGradient id="paint12_linear_9929_158083" x1="44.7777" y1="-9.90623" x2="64.1872" y2="80.5705" gradientUnits="userSpaceOnUse">
<stop stop-color="#7ED4EF"/>
<stop offset="0.2294" stop-color="#66BFE6"/>
<stop offset="0.711" stop-color="#298BD0"/>
<stop offset="1" stop-color="#0169C2"/>
</linearGradient>
<linearGradient id="paint13_linear_9929_158083" x1="43.5055" y1="-9.94049" x2="63.0289" y2="81.0676" gradientUnits="userSpaceOnUse">
<stop stop-color="#7ED4EF"/>
<stop offset="0.2294" stop-color="#66BFE6"/>
<stop offset="0.711" stop-color="#298BD0"/>
<stop offset="1" stop-color="#0169C2"/>
</linearGradient>
<linearGradient id="paint14_linear_9929_158083" x1="42.0992" y1="-9.99207" x2="61.7367" y2="81.5474" gradientUnits="userSpaceOnUse">
<stop stop-color="#7ED4EF"/>
<stop offset="0.2294" stop-color="#66BFE6"/>
<stop offset="0.711" stop-color="#298BD0"/>
<stop offset="1" stop-color="#0169C2"/>
</linearGradient>
<linearGradient id="paint15_linear_9929_158083" x1="40.8638" y1="-10.0244" x2="60.6153" y2="82.0464" gradientUnits="userSpaceOnUse">
<stop stop-color="#7ED4EF"/>
<stop offset="0.2294" stop-color="#66BFE6"/>
<stop offset="0.711" stop-color="#298BD0"/>
<stop offset="1" stop-color="#0169C2"/>
</linearGradient>
<linearGradient id="paint16_linear_9929_158083" x1="39.5819" y1="-10.0746" x2="59.4473" y2="82.5275" gradientUnits="userSpaceOnUse">
<stop stop-color="#7ED4EF"/>
<stop offset="0.2294" stop-color="#66BFE6"/>
<stop offset="0.711" stop-color="#298BD0"/>
<stop offset="1" stop-color="#0169C2"/>
</linearGradient>
<linearGradient id="paint17_linear_9929_158083" x1="38.1894" y1="-10.1278" x2="58.1689" y2="83.0056" gradientUnits="userSpaceOnUse">
<stop stop-color="#7ED4EF"/>
<stop offset="0.2294" stop-color="#66BFE6"/>
<stop offset="0.711" stop-color="#298BD0"/>
<stop offset="1" stop-color="#0169C2"/>
</linearGradient>
<linearGradient id="paint18_linear_9929_158083" x1="36.9271" y1="-10.1698" x2="57.0205" y2="83.495" gradientUnits="userSpaceOnUse">
<stop stop-color="#7ED4EF"/>
<stop offset="0.2294" stop-color="#66BFE6"/>
<stop offset="0.711" stop-color="#298BD0"/>
<stop offset="1" stop-color="#0169C2"/>
</linearGradient>
<linearGradient id="paint19_linear_9929_158083" x1="35.4199" y1="-10.2209" x2="55.6273" y2="83.9752" gradientUnits="userSpaceOnUse">
<stop stop-color="#7ED4EF"/>
<stop offset="0.2294" stop-color="#66BFE6"/>
<stop offset="0.711" stop-color="#298BD0"/>
<stop offset="1" stop-color="#0169C2"/>
</linearGradient>
<linearGradient id="paint20_linear_9929_158083" x1="34.1434" y1="-10.2664" x2="54.4648" y2="84.461" gradientUnits="userSpaceOnUse">
<stop stop-color="#7ED4EF"/>
<stop offset="0.2294" stop-color="#66BFE6"/>
<stop offset="0.711" stop-color="#298BD0"/>
<stop offset="1" stop-color="#0169C2"/>
</linearGradient>
<linearGradient id="paint21_linear_9929_158083" x1="32.7885" y1="-10.3072" x2="53.2238" y2="84.9515" gradientUnits="userSpaceOnUse">
<stop stop-color="#7ED4EF"/>
<stop offset="0.2294" stop-color="#66BFE6"/>
<stop offset="0.711" stop-color="#298BD0"/>
<stop offset="1" stop-color="#0169C2"/>
</linearGradient>
<linearGradient id="paint22_linear_9929_158083" x1="31.5328" y1="-10.3522" x2="52.0822" y2="85.4378" gradientUnits="userSpaceOnUse">
<stop stop-color="#7ED4EF"/>
<stop offset="0.2294" stop-color="#66BFE6"/>
<stop offset="0.711" stop-color="#298BD0"/>
<stop offset="1" stop-color="#0169C2"/>
</linearGradient>
<linearGradient id="paint23_linear_9929_158083" x1="30.2832" y1="-10.3957" x2="50.9465" y2="85.9256" gradientUnits="userSpaceOnUse">
<stop stop-color="#7ED4EF"/>
<stop offset="0.2294" stop-color="#66BFE6"/>
<stop offset="0.711" stop-color="#298BD0"/>
<stop offset="1" stop-color="#0169C2"/>
</linearGradient>
<linearGradient id="paint24_linear_9929_158083" x1="28.9126" y1="-10.4525" x2="49.6898" y2="86.4001" gradientUnits="userSpaceOnUse">
<stop stop-color="#7ED4EF"/>
<stop offset="0.2294" stop-color="#66BFE6"/>
<stop offset="0.711" stop-color="#298BD0"/>
<stop offset="1" stop-color="#0169C2"/>
</linearGradient>
<linearGradient id="paint25_linear_9929_158083" x1="27.6358" y1="-10.5038" x2="48.5271" y2="86.88" gradientUnits="userSpaceOnUse">
<stop stop-color="#7ED4EF"/>
<stop offset="0.2294" stop-color="#66BFE6"/>
<stop offset="0.711" stop-color="#298BD0"/>
<stop offset="1" stop-color="#0169C2"/>
</linearGradient>
<linearGradient id="paint26_linear_9929_158083" x1="26.2575" y1="-10.5496" x2="47.2627" y2="87.3656" gradientUnits="userSpaceOnUse">
<stop stop-color="#7ED4EF"/>
<stop offset="0.2294" stop-color="#66BFE6"/>
<stop offset="0.711" stop-color="#298BD0"/>
<stop offset="1" stop-color="#0169C2"/>
</linearGradient>
<linearGradient id="paint27_linear_9929_158083" x1="25.0197" y1="-10.5875" x2="46.1389" y2="87.8589" gradientUnits="userSpaceOnUse">
<stop stop-color="#7ED4EF"/>
<stop offset="0.2294" stop-color="#66BFE6"/>
<stop offset="0.711" stop-color="#298BD0"/>
<stop offset="1" stop-color="#0169C2"/>
</linearGradient>
<linearGradient id="paint28_linear_9929_158083" x1="23.6329" y1="-10.6425" x2="44.8661" y2="88.3351" gradientUnits="userSpaceOnUse">
<stop stop-color="#7ED4EF"/>
<stop offset="0.2294" stop-color="#66BFE6"/>
<stop offset="0.711" stop-color="#298BD0"/>
<stop offset="1" stop-color="#0169C2"/>
</linearGradient>
<linearGradient id="paint29_linear_9929_158083" x1="22.365" y1="-10.6872" x2="43.7122" y2="88.8217" gradientUnits="userSpaceOnUse">
<stop stop-color="#7ED4EF"/>
<stop offset="0.2294" stop-color="#66BFE6"/>
<stop offset="0.711" stop-color="#298BD0"/>
<stop offset="1" stop-color="#0169C2"/>
</linearGradient>
</defs>
</svg>
