<svg width="32" height="32" viewBox="0 0 32 32" fill="none" xmlns="http://www.w3.org/2000/svg">
<circle cx="16" cy="16" r="16" fill="#F6F7FD"/>
<path d="M19.5 16C22 16 24 18 24 20.5C24 21.38 23.75 22.21 23.31 22.9L26.39 26L25 27.39L21.88 24.32C21.19 24.75 20.37 25 19.5 25C17 25 15 23 15 20.5C15 18 17 16 19.5 16ZM19.5 18C18.837 18 18.2011 18.2634 17.7322 18.7322C17.2634 19.2011 17 19.837 17 20.5C17 21.163 17.2634 21.7989 17.7322 22.2678C18.2011 22.7366 18.837 23 19.5 23C20.163 23 20.7989 22.7366 21.2678 22.2678C21.7366 21.7989 22 21.163 22 20.5C22 19.837 21.7366 19.2011 21.2678 18.7322C20.7989 18.2634 20.163 18 19.5 18ZM9 7H23C24.11 7 25 7.89 25 9V17.03C24.5 16.23 23.81 15.54 23 15V9H9V23H13.5C13.81 23.75 14.26 24.42 14.81 25H9C7.89 25 7 24.11 7 23V9C7 7.89 7.89 7 9 7ZM11 11H21V13H11V11ZM11 15H16.03C15.23 15.5 14.54 16.19 14 17H11V15ZM11 19H13.17C13.06 19.5 13 20 13 20.5V21H11V19Z" fill="#2671D9"/>
</svg>
