<svg width="32" height="32" viewBox="0 0 32 32" fill="none" xmlns="http://www.w3.org/2000/svg">
<circle cx="16" cy="16" r="16" fill="#F6F7FD"/>
<path d="M9 7H23C24.11 7 25 7.89 25 9V17.03C24.5 16.23 23.81 15.54 23 15V9H9V23H13.5C13.81 23.75 14.26 24.42 14.81 25H9C7.89 25 7 24.11 7 23V9C7 7.89 7.89 7 9 7ZM11 11H21V13H11V11ZM11 15H16.03C15.23 15.5 14.54 16.19 14 17H11V15ZM11 19H13.17C13.06 19.5 13 20 13 20.5V21H11V19Z" fill="#2671D9"/>
<path d="M20 26C22.7614 26 25 23.7614 25 21C25 18.2386 22.7614 16 20 16C17.2386 16 15 18.2386 15 21C15 23.7614 17.2386 26 20 26Z" stroke="#2671D9" stroke-width="1.5" stroke-linecap="round" stroke-linejoin="round"/>
<path d="M20 19V20.3334V21L21.5 22.5" stroke="#2671D9" stroke-width="1.5" stroke-linecap="round" stroke-linejoin="round"/>
</svg>
