<svg width="18" height="18" viewBox="0 0 18 18" fill="none" xmlns="http://www.w3.org/2000/svg">
<rect x="0.5" y="0.5" width="17" height="17" rx="8.5" fill="#FFE5E6"/>
<rect x="0.5" y="0.5" width="17" height="17" rx="8.5" stroke="#FD8A8A"/>
<path fill-rule="evenodd" clip-rule="evenodd" d="M5.43306 5.43306C5.67714 5.18898 6.07286 5.18898 6.31694 5.43306L9 8.11612L11.6831 5.43306C11.9271 5.18898 12.3229 5.18898 12.5669 5.43306C12.811 5.67714 12.811 6.07286 12.5669 6.31694L9.88388 9L12.5669 11.6831C12.811 11.9271 12.811 12.3229 12.5669 12.5669C12.3229 12.811 11.9271 12.811 11.6831 12.5669L9 9.88388L6.31694 12.5669C6.07286 12.811 5.67714 12.811 5.43306 12.5669C5.18898 12.3229 5.18898 11.9271 5.43306 11.6831L8.11612 9L5.43306 6.31694C5.18898 6.07286 5.18898 5.67714 5.43306 5.43306Z" fill="#FF5656"/>
</svg>
